<svg xmlns="http://www.w3.org/2000/svg" viewBox="0 0 173.73 173.73"><defs><linearGradient id="a" x1="30.71" y1="-10.4" x2="143.02" y2="184.13" gradientUnits="userSpaceOnUse"><stop offset="0" stop-color="#fcd015"/><stop offset=".19" stop-color="#f7b61d"/><stop offset=".37" stop-color="#f3a423"/><stop offset=".5" stop-color="#f29e25"/><stop offset="1" stop-color="#a56c19"/></linearGradient></defs><g data-name="Capa 2"><g data-name="Capa 31"><rect width="173.73" height="173.73" rx="17.35" fill="url(#a)"/><path d="M156.34 61.94v62.45a15.41 15.41 0 0 1-7.7 13.33l-35.84 20.69V141.3l22.45-13a12.57 12.57 0 0 0 6.27-10.87V68.86A12.54 12.54 0 0 0 135.25 58L109.7 43.23v56.45a10 10 0 0 1-5 8.61l-12.89 7.44a9.94 9.94 0 0 1-10 0L69 108.29a10 10 0 0 1-5-8.61V43.23L38.48 58a12.54 12.54 0 0 0-6.27 10.87v48.61a12.57 12.57 0 0 0 6.27 10.87l22.45 13v17.11l-35.84-20.74a15.41 15.41 0 0 1-7.7-13.33V61.94a15.39 15.39 0 0 1 7.7-13.33l54.08-31.23a15.39 15.39 0 0 1 15.39 0l54.08 31.23a15.39 15.39 0 0 1 7.7 13.33z" fill="none" stroke="#ececec" stroke-linecap="round" stroke-linejoin="round" stroke-width="7.41"/></g></g></svg>