<svg xmlns="http://www.w3.org/2000/svg" viewBox="0 0 35.52 35.52"><g data-name="Capa 2"><g data-name="Linkedin" fill="none" stroke="#fff" stroke-linejoin="round" stroke-width="1.5"><path d="M30.66 20.51v9h-5.78v-8.38c0-2.19-.9-3.68-2.89-3.68a2.92 2.92 0 0 0-2.76 2 3.63 3.63 0 0 0-.12 1.32v8.74h-5.73s.07-14.81 0-16.15h5.73v2.53c.33-1.1 2.16-2.69 5.08-2.69 3.62 0 6.47 2.33 6.47 7.33zM5.17 29.49h5.1V13.34h-5.1v16.15zM10.59 8.6a2.57 2.57 0 0 1-2.82 2.54 2.55 2.55 0 1 1 .03-5.08 2.56 2.56 0 0 1 2.79 2.54z"/><path d="M32.42 34.77H3.1a2.35 2.35 0 0 1-2.35-2.35V3.1A2.35 2.35 0 0 1 3.1.75h29.32a2.35 2.35 0 0 1 2.35 2.35v29.32a2.35 2.35 0 0 1-2.35 2.35z"/></g></g></svg>