<svg xmlns="http://www.w3.org/2000/svg" viewBox="0 0 28.64 34.91"><path d="M3.68 20.34l1.19.77.44-1.68c.8-2.95.71-2.82.79-3.15a10.27 10.27 0 0 1-.28-5.1v-.06c.79-5.24 9.56-6.67 13.64-3.26 1.75 1.47 2.42 3.68 1.91 6.39a9.36 9.36 0 0 1-2 4.56A3.41 3.41 0 0 1 15.24 20a1.71 1.71 0 0 1-.84-2.15 34.78 34.78 0 0 0 1.7-6.77 3.46 3.46 0 0 0-2.75-3.71 4.59 4.59 0 0 0-5.18 3.08 7.8 7.8 0 0 0 0 5.61 26.47 26.47 0 0 1-.89 3.87C6.06 24.48 4.38 30.72 6 33.9l.52 1 .94-.62c2.71-1.76 4.29-6.88 5.16-10.07 2.28 1.69 5.51 1.84 8.71.27a13 13 0 0 0 6.86-15.13C26.28 1.92 18.86-.95 11.38.27 5.22 1.29 1.3 5.28.26 10.2c-.88 4.15.5 8.22 3.42 10.14zm-1.42-9.72c.93-4.39 4.46-7.51 9.45-8.33 6-1 12.8 1 14.5 7.57a11 11 0 0 1-5.76 12.8c-2.37 1.16-5.6 1.5-7.54-1L11.64 20l-.53 2c-.7 2.64-1.84 7.12-3.67 9.52-.36-3 1-7.92 1.83-11.08.81-3 1.13-4.26.86-5a5.78 5.78 0 0 1-.05-4.23 2.58 2.58 0 0 1 2.83-1.84A1.41 1.41 0 0 1 14.06 11a35.06 35.06 0 0 1-1.62 6.31 3.76 3.76 0 0 0 1.82 4.53 5.43 5.43 0 0 0 6.67-1.65 11.21 11.21 0 0 0 2.46-5.51 9.7 9.7 0 0 0-.24-4.89 7.51 7.51 0 0 0-2.37-3.49c-5.28-4.42-15.89-2.39-17 4.48A11.85 11.85 0 0 0 4 16.35c-.08.36-.2.81-.32 1.28a8.28 8.28 0 0 1-1.42-7.01z" fill="#fff" data-name="Capa 2"/></svg>