<svg xmlns="http://www.w3.org/2000/svg" viewBox="0 0 34.02 27.84"><path d="M34 3.72l-2.34.11L33 .21s-4 1.46-5 1.72a7.94 7.94 0 0 0-9.35-.76 6.48 6.48 0 0 0-3.11 6.66 17.22 17.22 0 0 1-11.19-6.3L3.41.41l-.7 1.28a7.78 7.78 0 0 0-.83 5.24A7.37 7.37 0 0 0 2.61 9l-.81-.33L1.71 10a7.15 7.15 0 0 0 1.21 4.27 8.28 8.28 0 0 0 1 1.17l-.42-.07.5 1.55a7.55 7.55 0 0 0 3.85 4.47c-1.79.76-3.24 1.24-5.63 2L0 24.14l2 1.1a21 21 0 0 0 6.16 2.24c6 .94 12.68.18 17.2-3.9 3.81-3.42 5.06-8.3 4.8-13.38a3.15 3.15 0 0 1 .59-2.06C31.61 7 34 3.73 34 3.72zm-4.82 3.22a5.19 5.19 0 0 0-1 3.36c.26 5.12-1.13 9.09-4.14 11.81-3.52 3.16-9.19 4.4-15.56 3.4a15 15 0 0 1-3.33-1 51.11 51.11 0 0 0 6-2.48l3.49-1.64-3.85-.25a5.43 5.43 0 0 1-4.31-2.46A7.18 7.18 0 0 0 8 17.45l3.67-1L8 15.52a5.56 5.56 0 0 1-4.09-3.95 9.19 9.19 0 0 0 1.5.24l3.42.34L6.07 10a5.7 5.7 0 0 1-2.16-6 19.81 19.81 0 0 0 14 6 9.44 9.44 0 0 0-.21-1.69 4.57 4.57 0 0 1 2-5.48 6 6 0 0 1 7 .58 1.77 1.77 0 0 0 1.63.44 13 13 0 0 0 1.35-.41l-.86 2.45h1.1c-.2.32-.44.66-.74 1.05z" fill="#fff" data-name="Capa 2"/></svg>